0
SECTION
2
HEADER
9
$INSUNITS
70
4
9
$ACADVER
1
AC1014
9
$HANDSEED
5
FFFF
0
ENDSEC
0
SECTION
2
TABLES
0
TABLE
2
VPORT
5
8
100
AcDbSymbolTable
0
ENDTAB
0
TABLE
2
LTYPE
5
5
100
AcDbSymbolTable
0
LTYPE
5
14
100
AcDbSymbolTableRecord
100
AcDbLinetypeTableRecord
2
BYBLOCK
70
0
0
LTYPE
5
15
100
AcDbSymbolTableRecord
100
AcDbLinetypeTableRecord
2
BYLAYER
70
0
0
ENDTAB
0
TABLE
2
LAYER
5
2
100
AcDbSymbolTable
70
2
0
LAYER
5
50
100
AcDbSymbolTableRecord
100
AcDbLayerTableRecord
2
0
70
0
6
CONTINUOUS
0
ENDTAB
0
TABLE
2
STYLE
5
3
100
AcDbSymbolTable
70
1
0
STYLE
5
11
100
AcDbSymbolTableRecord
100
AcDbTextStyleTableRecord
2
STANDARD
70
0
0
ENDTAB
0
TABLE
2
VIEW
5
6
100
AcDbSymbolTable
70
0
0
ENDTAB
0
TABLE
2
UCS
5
7
100
AcDbSymbolTable
70
0
0
ENDTAB
0
TABLE
2
APPID
5
9
100
AcDbSymbolTable
70
2
0
APPID
5
12
100
AcDbSymbolTableRecord
100
AcDbRegAppTableRecord
2
ACAD
70
0
0
ENDTAB
0
TABLE
2
DIMSTYLE
5
A
100
AcDbSymbolTable
70
1
0
ENDTAB
0
TABLE
2
BLOCK_RECORD
5
1
100
AcDbSymbolTable
70
1
0
BLOCK_RECORD
5
1F
100
AcDbSymbolTableRecord
100
AcDbBlockTableRecord
2
*MODEL_SPACE
0
BLOCK_RECORD
5
1B
100
AcDbSymbolTableRecord
100
AcDbBlockTableRecord
2
*PAPER_SPACE
0
ENDTAB
0
ENDSEC
0
SECTION
2
BLOCKS
0
BLOCK
5
20
100
AcDbEntity
100
AcDbBlockBegin
2
*MODEL_SPACE
0
ENDBLK
5
21
100
AcDbEntity
100
AcDbBlockEnd
0
BLOCK
5
1C
100
AcDbEntity
100
AcDbBlockBegin
2
*PAPER_SPACE
0
ENDBLK
5
1D
100
AcDbEntity
100
AcDbBlockEnd
0
ENDSEC
0
SECTION
2
ENTITIES
0
LINE
5
100
100
AcDbEntity
8
0
100
AcDbLine
10
-72.000001072883606
20
26.000000387430191
30
0
11
-72.000001072883606
21
-26.000000387430191
31
0
0
LINE
5
101
100
AcDbEntity
8
0
100
AcDbLine
10
147.99999892711639
20
26.000000387430191
30
0
11
147.99999892711639
21
-26.000000387430191
31
0
0
LINE
5
102
100
AcDbEntity
8
0
100
AcDbLine
10
-72.000001072883606
20
26.000000387430191
30
0
11
-57.082651102209397
21
40.9173503581044
31
0
0
LINE
5
103
100
AcDbEntity
8
0
100
AcDbLine
10
147.99999892711639
20
-26.000000387430191
30
0
11
133.07633573064845
21
-40.92366358389814
31
0
0
CIRCLE
5
104
100
AcDbEntity
8
0
100
AcDbCircle
10
51.999999999999993
20
85
30
0
40
1.2499999999999989
210
0
220
0
230
1
0
CIRCLE
5
105
100
AcDbEntity
8
0
100
AcDbCircle
10
45
20
78
30
0
40
1.25
210
0
220
0
230
1
0
LINE
5
106
100
AcDbEntity
8
0
100
AcDbLine
10
35
20
85
30
0
11
35
21
69.999989658087742
31
0
0
CIRCLE
5
107
100
AcDbEntity
8
0
100
AcDbCircle
10
45.014381868368588
20
-92.000014774168307
30
0
40
1.2500000000000135
210
0
220
0
230
1
0
LINE
5
108
100
AcDbEntity
8
0
100
AcDbLine
10
35.028763736737147
20
-85.000029548336585
30
0
11
35.028763736737147
21
-69.970209846224165
31
0
0
LINE
5
109
100
AcDbEntity
8
0
100
AcDbLine
10
55.028763736737147
20
-85.000029548336585
30
0
11
55.028763736737112
21
-70.000000000000014
31
0
0
CIRCLE
5
110
100
AcDbEntity
8
0
100
AcDbCircle
10
45.028763736737147
20
-78.000029548336585
30
0
40
1.25
210
0
220
0
230
1
0
CIRCLE
5
111
100
AcDbEntity
8
0
100
AcDbCircle
10
38.028763736737154
20
-85.000029548336585
30
0
40
1.2499999999999989
210
0
220
0
230
1
0
CIRCLE
5
112
100
AcDbEntity
8
0
100
AcDbCircle
10
52.02876373673714
20
-85.000029548336585
30
0
40
1.2499999999999947
210
0
220
0
230
1
0
CIRCLE
5
113
100
AcDbEntity
8
0
100
AcDbCircle
10
45.028763736737147
20
-85.000029548336585
30
0
40
3.9999999999999858
210
0
220
0
230
1
0
CIRCLE
5
114
100
AcDbEntity
8
0
100
AcDbCircle
10
38.000000000000007
20
85
30
0
40
1.2499999999999947
210
0
220
0
230
1
0
CIRCLE
5
115
100
AcDbEntity
8
0
100
AcDbCircle
10
141.46374682221364
20
63.432871265895173
30
0
40
1.2500000000000135
210
-0
220
0
230
1
0
LINE
5
116
100
AcDbEntity
8
0
100
AcDbLine
10
143.57490809603831
20
51.42223594928798
30
0
11
132.96829906540381
21
40.815626918653493
31
0
0
LINE
5
117
100
AcDbEntity
8
0
100
AcDbLine
10
129.43277247230739
20
65.564371573018946
30
0
11
118.82616344167286
21
54.957762542384437
31
0
0
CIRCLE
5
118
100
AcDbEntity
8
0
100
AcDbCircle
10
131.55409281586702
20
53.543556292847619
30
0
40
1.25
210
-0
220
0
230
1
0
CIRCLE
5
119
100
AcDbEntity
8
0
100
AcDbCircle
10
141.45358775247868
20
53.543556292847619
30
0
40
1.2499999999999989
210
-0
220
0
230
1
0
CIRCLE
5
120
100
AcDbEntity
8
0
100
AcDbCircle
10
131.55409281586702
20
63.443051229459293
30
0
40
1.2499999999999947
210
-0
220
0
230
1
0
CIRCLE
5
121
100
AcDbEntity
8
0
100
AcDbCircle
10
136.50384028417284
20
58.493303761153463
30
0
40
3.9999999999999858
210
-0
220
0
230
1
0
CIRCLE
5
122
100
AcDbEntity
8
0
100
AcDbCircle
10
-65.506408031088824
20
63.50358194401386
30
0
40
1.2500000000000135
210
0
220
-0
230
1
0
LINE
5
123
100
AcDbEntity
8
0
100
AcDbLine
10
-53.495772714481646
20
65.614743217838537
30
0
11
-42.889163683847144
21
55.00813418720405
31
0
0
LINE
5
124
100
AcDbEntity
8
0
100
AcDbLine
10
-67.637908338212597
20
51.472607594107572
30
0
11
-57.031299307578095
21
40.865998563473092
31
0
0
CIRCLE
5
125
100
AcDbEntity
8
0
100
AcDbCircle
10
-55.617093058041284
20
53.593927937667232
30
0
40
1.25
210
0
220
-0
230
1
0
CIRCLE
5
126
100
AcDbEntity
8
0
100
AcDbCircle
10
-55.617093058041291
20
63.493422874278878
30
0
40
1.2499999999999989
210
0
220
-0
230
1
0
CIRCLE
5
127
100
AcDbEntity
8
0
100
AcDbCircle
10
-65.516587994652951
20
53.593927937667232
30
0
40
1.2499999999999947
210
0
220
-0
230
1
0
CIRCLE
5
128
100
AcDbEntity
8
0
100
AcDbCircle
10
-60.566840526347114
20
58.543675405973055
30
0
40
3.9999999999999858
210
0
220
-0
230
1
0
CIRCLE
5
129
100
AcDbEntity
8
0
100
AcDbCircle
10
45.014381868368559
20
91.999985225831722
30
0
40
1.2500000000000135
210
0
220
0
230
1
0
LINE
5
130
100
AcDbEntity
8
0
100
AcDbLine
10
55
20
85
30
0
11
55
21
69.999989658087742
31
0
0
CIRCLE
5
131
100
AcDbEntity
8
0
100
AcDbCircle
10
45
20
85
30
0
40
3.9999999999999858
210
0
220
0
230
1
0
CIRCLE
5
132
100
AcDbEntity
8
0
100
AcDbCircle
10
131.55409281586702
20
-53.543556292847619
30
0
40
1.25
210
-0
220
0
230
1
0
CIRCLE
5
133
100
AcDbEntity
8
0
100
AcDbCircle
10
131.55409281586702
20
-63.443051229459293
30
0
40
1.2499999999999947
210
-0
220
0
230
1
0
CIRCLE
5
134
100
AcDbEntity
8
0
100
AcDbCircle
10
136.50384028417284
20
-58.493303761153463
30
0
40
3.9999999999999858
210
-0
220
0
230
1
0
LINE
5
135
100
AcDbEntity
8
0
100
AcDbLine
10
129.43277247230739
20
-65.564371573018946
30
0
11
118.82616344167286
21
-54.957762542384437
31
0
0
CIRCLE
5
136
100
AcDbEntity
8
0
100
AcDbCircle
10
141.45358775247868
20
-53.543556292847619
30
0
40
1.2499999999999989
210
-0
220
0
230
1
0
CIRCLE
5
137
100
AcDbEntity
8
0
100
AcDbCircle
10
141.46374682221364
20
-63.432871265895173
30
0
40
1.2500000000000135
210
-0
220
0
230
1
0
LINE
5
138
100
AcDbEntity
8
0
100
AcDbLine
10
143.57490809603831
20
-51.42223594928798
30
0
11
132.96829906540381
21
-40.815626918653493
31
0
0
LINE
5
139
100
AcDbEntity
8
0
100
AcDbLine
10
-67.637908338212611
20
-51.472607594107572
30
0
11
-57.031299307578109
21
-40.865998563473092
31
0
0
CIRCLE
5
140
100
AcDbEntity
8
0
100
AcDbCircle
10
-65.516587994652937
20
-53.593927937667232
30
0
40
1.2499999999999947
210
0
220
-0
230
1
0
CIRCLE
5
141
100
AcDbEntity
8
0
100
AcDbCircle
10
-60.566840526347114
20
-58.543675405973055
30
0
40
3.9999999999999858
210
0
220
-0
230
1
0
CIRCLE
5
142
100
AcDbEntity
8
0
100
AcDbCircle
10
-55.617093058041291
20
-63.493422874278878
30
0
40
1.2499999999999989
210
0
220
-0
230
1
0
CIRCLE
5
143
100
AcDbEntity
8
0
100
AcDbCircle
10
-55.617093058041291
20
-53.593927937667232
30
0
40
1.25
210
0
220
-0
230
1
0
LINE
5
144
100
AcDbEntity
8
0
100
AcDbLine
10
-53.495772714481653
20
-65.614743217838537
30
0
11
-42.889163683847151
21
-55.00813418720405
31
0
0
CIRCLE
5
145
100
AcDbEntity
8
0
100
AcDbCircle
10
-65.506408031088839
20
-63.50358194401386
30
0
40
1.2500000000000058
210
0
220
0
230
1
0
LINE
5
146
100
AcDbEntity
8
0
100
AcDbLine
10
35
20
69.999989658087742
30
0
11
-42.889163683847144
21
55.00813418720405
31
0
0
LINE
5
147
100
AcDbEntity
8
0
100
AcDbLine
10
55
20
69.999989658087742
30
0
11
118.82616344167286
21
54.957762542384437
31
0
0
LINE
5
148
100
AcDbEntity
8
0
100
AcDbLine
10
118.82616344167286
20
-54.957762542384437
30
0
11
55.028763736737112
21
-70.000000000000014
31
0
0
LINE
5
149
100
AcDbEntity
8
0
100
AcDbLine
10
35.028763736737147
20
-69.970209846224165
30
0
11
-42.889163683847151
21
-55.00813418720405
31
0
0
ARC
5
150
100
AcDbEntity
8
0
100
AcDbCircle
10
-60.566840526347114
20
58.543675405973055
30
0
40
9.9999999999999982
210
0
220
-0
230
1
100
AcDbArc
50
45.000000000000064
51
225
0
ARC
5
151
100
AcDbEntity
8
0
100
AcDbCircle
10
-60.566840526347114
20
-58.543675405973055
30
0
40
10.000000000000018
210
0
220
0
230
1
100
AcDbArc
50
135.00000000000006
51
314.99999999999989
0
ARC
5
152
100
AcDbEntity
8
0
100
AcDbCircle
10
45.028763736737147
20
-85.000029548336585
30
0
40
10
210
0
220
0
230
1
100
AcDbArc
50
-180
51
0
0
ARC
5
153
100
AcDbEntity
8
0
100
AcDbCircle
10
45
20
85
30
0
40
10
210
0
220
0
230
1
100
AcDbArc
50
0
51
180
0
ARC
5
154
100
AcDbEntity
8
0
100
AcDbCircle
10
136.50384028417284
20
58.493303761153463
30
0
40
9.9999999999999929
210
-0
220
0
230
1
100
AcDbArc
50
-45.00000000000005
51
134.99999999999986
0
ARC
5
155
100
AcDbEntity
8
0
100
AcDbCircle
10
136.50384028417284
20
-58.493303761153463
30
0
40
9.9999999999999982
210
0
220
0
230
1
100
AcDbArc
50
-134.99999999999986
51
45.000000000000028
0
LINE
5
156
100
AcDbEntity
8
0
100
AcDbLine
10
147.99999892711639
20
26.000000387430191
30
0
11
133.07633573064845
21
40.923663583898133
31
0
0
LINE
5
157
100
AcDbEntity
8
0
100
AcDbLine
10
-72.000001072883606
20
-26.000000387430191
30
0
11
-57.082651102209411
21
-40.917350358104386
31
0
0
CIRCLE
5
158
100
AcDbEntity
8
0
100
AcDbCircle
10
-69.000001028180122
20
23.500000350177288
30
0
40
1.2499999999999978
210
0
220
0
230
1
0
CIRCLE
5
159
100
AcDbEntity
8
0
100
AcDbCircle
10
-69.000001028180122
20
-23.500000350177288
30
0
40
1.2499999999999989
210
0
220
0
230
1
0
CIRCLE
5
160
100
AcDbEntity
8
0
100
AcDbCircle
10
69.000001028180122
20
23.500000350177288
30
0
40
1.2500000000000027
210
0
220
0
230
1
0
CIRCLE
5
161
100
AcDbEntity
8
0
100
AcDbCircle
10
69.000001028180122
20
-23.500000350177288
30
0
40
1.2500000000000033
210
0
220
0
230
1
0
CIRCLE
5
162
100
AcDbEntity
8
0
100
AcDbCircle
10
95.499998927116394
20
-27.5
30
0
40
0.99999999999999845
210
0
220
0
230
1
0
CIRCLE
5
163
100
AcDbEntity
8
0
100
AcDbCircle
10
80.499998927116394
20
-27.5
30
0
40
1.25
210
0
220
0
230
1
0
CIRCLE
5
164
100
AcDbEntity
8
0
100
AcDbCircle
10
95.499998927116394
20
-12.5
30
0
40
0.99999999999999778
210
0
220
0
230
1
0
CIRCLE
5
165
100
AcDbEntity
8
0
100
AcDbCircle
10
80.499998927116394
20
-12.5
30
0
40
1.0000000000000009
210
0
220
0
230
1
0
LINE
5
166
100
AcDbEntity
8
0
100
AcDbLine
10
118.82616344167286
20
-54.957762542384437
30
0
11
55.028763736737112
21
-70.000000000000014
31
0
0
LINE
5
167
100
AcDbEntity
8
0
100
AcDbLine
10
55.028763736737147
20
-85.000029548336585
30
0
11
55.028763736737112
21
-70.000000000000014
31
0
0
ARC
5
168
100
AcDbEntity
8
0
100
AcDbCircle
10
45.028763736737147
20
-85.000029548336585
30
0
40
10
210
0
220
0
230
1
100
AcDbArc
50
-180
51
0
0
CIRCLE
5
169
100
AcDbEntity
8
0
100
AcDbCircle
10
45.028763736737147
20
-85.000029548336585
30
0
40
3.9999999999999858
210
0
220
0
230
1
0
CIRCLE
5
170
100
AcDbEntity
8
0
100
AcDbCircle
10
361.55409281586697
20
-63.443051229459293
30
0
40
1.2499999999999947
210
0
220
0
230
1
0
LINE
5
171
100
AcDbEntity
8
0
100
AcDbLine
10
377.99999892711639
20
26.000000387430191
30
0
11
377.99999892711639
21
-26.000000387430191
31
0
0
LINE
5
172
100
AcDbEntity
8
0
100
AcDbLine
10
373.57490809603831
20
51.42223594928798
30
0
11
362.96829906540381
21
40.815626918653493
31
0
0
LINE
5
173
100
AcDbEntity
8
0
100
AcDbLine
10
373.57490809603831
20
-51.42223594928798
30
0
11
362.96829906540381
21
-40.815626918653493
31
0
0
CIRCLE
5
174
100
AcDbEntity
8
0
100
AcDbCircle
10
275
20
85
30
0
40
3.9999999999999858
210
0
220
0
230
1
0
CIRCLE
5
175
100
AcDbEntity
8
0
100
AcDbCircle
10
371.46374682221364
20
63.432871265895173
30
0
40
1.2500000000000135
210
0
220
0
230
1
0
ARC
5
176
100
AcDbEntity
8
0
100
AcDbCircle
10
366.50384028417278
20
58.493303761153463
30
0
40
10.000000000000043
210
0
220
0
230
1
100
AcDbArc
50
-44.999999999999794
51
134.99999999999952
0
CIRCLE
5
177
100
AcDbEntity
8
0
100
AcDbCircle
10
366.50384028417278
20
58.493303761153463
30
0
40
3.9999999999999858
210
0
220
0
230
1
0
LINE
5
178
100
AcDbEntity
8
0
100
AcDbLine
10
359.43277247230742
20
-65.564371573018946
30
0
11
348.8261634416728
21
-54.957762542384437
31
0
0
CIRCLE
5
179
100
AcDbEntity
8
0
100
AcDbCircle
10
361.55409281586697
20
63.443051229459293
30
0
40
1.2499999999999947
210
0
220
0
230
1
0
CIRCLE
5
180
100
AcDbEntity
8
0
100
AcDbCircle
10
371.46374682221364
20
-63.432871265895173
30
0
40
1.2500000000000135
210
0
220
0
230
1
0
LINE
5
181
100
AcDbEntity
8
0
100
AcDbLine
10
377.99999892711639
20
26.000000387430191
30
0
11
363.0763357306484
21
40.923663583898133
31
0
0
CIRCLE
5
182
100
AcDbEntity
8
0
100
AcDbCircle
10
371.45358775247865
20
-53.543556292847619
30
0
40
1.2499999999999989
210
0
220
0
230
1
0
CIRCLE
5
183
100
AcDbEntity
8
0
100
AcDbCircle
10
371.45358775247865
20
53.543556292847619
30
0
40
1.2499999999999989
210
0
220
0
230
1
0
CIRCLE
5
184
100
AcDbEntity
8
0
100
AcDbCircle
10
361.55409281586697
20
-53.543556292847619
30
0
40
1.25
210
0
220
0
230
1
0
CIRCLE
5
185
100
AcDbEntity
8
0
100
AcDbCircle
10
361.55409281586697
20
53.543556292847619
30
0
40
1.25
210
0
220
0
230
1
0
LINE
5
186
100
AcDbEntity
8
0
100
AcDbLine
10
377.99999892711639
20
-26.000000387430191
30
0
11
363.0763357306484
21
-40.92366358389814
31
0
0
ARC
5
187
100
AcDbEntity
8
0
100
AcDbCircle
10
366.50384028417278
20
-58.493303761153463
30
0
40
9.9999999999999485
210
0
220
0
230
1
100
AcDbArc
50
-134.99999999999952
51
44.999999999999801
0
CIRCLE
5
188
100
AcDbEntity
8
0
100
AcDbCircle
10
366.50384028417278
20
-58.493303761153463
30
0
40
3.9999999999999858
210
0
220
0
230
1
0
LINE
5
189
100
AcDbEntity
8
0
100
AcDbLine
10
359.43277247230742
20
65.564371573018946
30
0
11
348.8261634416728
21
54.957762542384437
31
0
0
LINE
5
190
100
AcDbEntity
8
0
100
AcDbLine
10
157.99999892711637
20
-26.000000387430191
30
0
11
172.91734889779059
21
-40.917350358104386
31
0
0
CIRCLE
5
191
100
AcDbEntity
8
0
100
AcDbCircle
10
164.48341200534702
20
-53.593927937667232
30
0
40
1.2499999999999947
210
0
220
0
230
1
0
LINE
5
192
100
AcDbEntity
8
0
100
AcDbLine
10
157.99999892711637
20
26.000000387430191
30
0
11
157.99999892711637
21
-26.000000387430191
31
0
0
CIRCLE
5
193
100
AcDbEntity
8
0
100
AcDbCircle
10
174.38290694195868
20
-63.493422874278878
30
0
40
1.2499999999999989
210
0
220
0
230
1
0
LINE
5
194
100
AcDbEntity
8
0
100
AcDbLine
10
157.99999892711637
20
26.000000387430191
30
0
11
172.91734889779059
21
40.9173503581044
31
0
0
CIRCLE
5
195
100
AcDbEntity
8
0
100
AcDbCircle
10
174.38290694195868
20
53.593927937667232
30
0
40
1.25
210
0
220
0
230
1
0
LINE
5
196
100
AcDbEntity
8
0
100
AcDbLine
10
162.36209166178736
20
-51.472607594107572
30
0
11
172.96870069242186
21
-40.865998563473092
31
0
0
CIRCLE
5
197
100
AcDbEntity
8
0
100
AcDbCircle
10
169.43315947365284
20
-58.543675405973055
30
0
40
3.9999999999999858
210
0
220
0
230
1
0
CIRCLE
5
198
100
AcDbEntity
8
0
100
AcDbCircle
10
169.43315947365284
20
58.543675405973055
30
0
40
3.9999999999999858
210
0
220
0
230
1
0
LINE
5
199
100
AcDbEntity
8
0
100
AcDbLine
10
176.50422728551831
20
-65.614743217838537
30
0
11
187.11083631615281
21
-55.00813418720405
31
0
0
CIRCLE
5
200
100
AcDbEntity
8
0
100
AcDbCircle
10
164.49359196891112
20
63.50358194401386
30
0
40
1.2500000000000135
210
0
220
0
230
1
0
CIRCLE
5
201
100
AcDbEntity
8
0
100
AcDbCircle
10
164.48341200534702
20
53.593927937667232
30
0
40
1.2499999999999947
210
0
220
0
230
1
0
ARC
5
202
100
AcDbEntity
8
0
100
AcDbCircle
10
169.43315947365284
20
-58.543675405973055
30
0
40
10.000000000000018
210
0
220
0
230
1
100
AcDbArc
50
134.99999999999997
51
314.99999999999994
0
CIRCLE
5
203
100
AcDbEntity
8
0
100
AcDbCircle
10
174.38290694195868
20
-53.593927937667232
30
0
40
1.25
210
0
220
0
230
1
0
CIRCLE
5
204
100
AcDbEntity
8
0
100
AcDbCircle
10
174.38290694195868
20
63.493422874278878
30
0
40
1.2499999999999989
210
0
220
0
230
1
0
CIRCLE
5
205
100
AcDbEntity
8
0
100
AcDbCircle
10
164.49359196891112
20
-63.50358194401386
30
0
40
1.2500000000000058
210
0
220
0
230
1
0
ARC
5
206
100
AcDbEntity
8
0
100
AcDbCircle
10
169.43315947365284
20
58.543675405973055
30
0
40
9.9999999999999929
210
0
220
-0
230
1
100
AcDbArc
50
45.000000000000028
51
225.00000000000014
0
ARC
5
207
100
AcDbEntity
8
0
100
AcDbCircle
10
275
20
85
30
0
40
10
210
0
220
0
230
1
100
AcDbArc
50
0
51
180
0
CIRCLE
5
208
100
AcDbEntity
8
0
100
AcDbCircle
10
268
20
85
30
0
40
1.2499999999999947
210
0
220
0
230
1
0
CIRCLE
5
209
100
AcDbEntity
8
0
100
AcDbCircle
10
281.99999999999994
20
85
30
0
40
1.2499999999999989
210
0
220
0
230
1
0
CIRCLE
5
210
100
AcDbEntity
8
0
100
AcDbCircle
10
275.02876373673712
20
-85.000029548336585
30
0
40
3.9999999999999858
210
0
220
0
230
1
0
CIRCLE
5
211
100
AcDbEntity
8
0
100
AcDbCircle
10
275
20
78
30
0
40
1.25
210
0
220
0
230
1
0
LINE
5
212
100
AcDbEntity
8
0
100
AcDbLine
10
285
20
69.999989658087742
30
0
11
348.8261634416728
21
54.957762542384437
31
0
0
LINE
5
213
100
AcDbEntity
8
0
100
AcDbLine
10
348.8261634416728
20
-54.957762542384437
30
0
11
285.02876373673706
21
-70.000000000000014
31
0
0
CIRCLE
5
214
100
AcDbEntity
8
0
100
AcDbCircle
10
282.02876373673712
20
-85.000029548336585
30
0
40
1.2499999999999947
210
0
220
0
230
1
0
LINE
5
215
100
AcDbEntity
8
0
100
AcDbLine
10
285
20
85
30
0
11
285
21
69.999989658087742
31
0
0
LINE
5
216
100
AcDbEntity
8
0
100
AcDbLine
10
264.99999999999994
20
85
30
0
11
264.99999999999994
21
69.999989658087742
31
0
0
LINE
5
217
100
AcDbEntity
8
0
100
AcDbLine
10
285.02876373673712
20
-85.000029548336585
30
0
11
285.02876373673706
21
-70.000000000000014
31
0
0
LINE
5
218
100
AcDbEntity
8
0
100
AcDbLine
10
162.36209166178739
20
51.472607594107572
30
0
11
172.96870069242189
21
40.865998563473092
31
0
0
LINE
5
219
100
AcDbEntity
8
0
100
AcDbLine
10
176.50422728551831
20
65.614743217838537
30
0
11
187.11083631615281
21
55.00813418720405
31
0
0
LINE
5
220
100
AcDbEntity
8
0
100
AcDbLine
10
265.02876373673712
20
-85.000029548336585
30
0
11
265.02876373673712
21
-69.970209846224165
31
0
0
CIRCLE
5
221
100
AcDbEntity
8
0
100
AcDbCircle
10
275.01438186836856
20
-92.000014774168307
30
0
40
1.2500000000000135
210
0
220
0
230
1
0
LINE
5
222
100
AcDbEntity
8
0
100
AcDbLine
10
264.99999999999994
20
69.999989658087742
30
0
11
187.11083631615281
21
55.00813418720405
31
0
0
CIRCLE
5
223
100
AcDbEntity
8
0
100
AcDbCircle
10
275.02876373673712
20
-85.000029548336585
30
0
40
3.9999999999999858
210
0
220
0
230
1
0
CIRCLE
5
224
100
AcDbEntity
8
0
100
AcDbCircle
10
268.02876373673712
20
-85.000029548336585
30
0
40
1.2499999999999989
210
0
220
0
230
1
0
LINE
5
225
100
AcDbEntity
8
0
100
AcDbLine
10
348.8261634416728
20
-54.957762542384437
30
0
11
285.02876373673706
21
-70.000000000000014
31
0
0
CIRCLE
5
226
100
AcDbEntity
8
0
100
AcDbCircle
10
275.02876373673712
20
-78.000029548336585
30
0
40
1.25
210
0
220
0
230
1
0
ARC
5
227
100
AcDbEntity
8
0
100
AcDbCircle
10
275.02876373673712
20
-85.000029548336585
30
0
40
10.000000000000036
210
0
220
0
230
1
100
AcDbArc
50
-180
51
0
0
CIRCLE
5
228
100
AcDbEntity
8
0
100
AcDbCircle
10
275.0143818683685
20
91.999985225831722
30
0
40
1.2500000000000135
210
0
220
0
230
1
0
LINE
5
229
100
AcDbEntity
8
0
100
AcDbLine
10
265.02876373673712
20
-69.970209846224165
30
0
11
187.11083631615281
21
-55.00813418720405
31
0
0
CIRCLE
5
230
100
AcDbEntity
8
0
100
AcDbCircle
10
165.00000320374966
20
24.5
30
0
40
1.25
210
0
220
0
230
1
0
CIRCLE
5
231
100
AcDbEntity
8
0
100
AcDbCircle
10
223.00000320374966
20
24.5
30
0
40
1.25
210
0
220
0
230
1
0
CIRCLE
5
232
100
AcDbEntity
8
0
100
AcDbCircle
10
165.00000320374966
20
-24.5
30
0
40
1.25
210
0
220
0
230
1
0
CIRCLE
5
233
100
AcDbEntity
8
0
100
AcDbCircle
10
223.00000320374966
20
-24.5
30
0
40
1.25
210
0
220
0
230
1
0
CIRCLE
5
234
100
AcDbEntity
8
0
100
AcDbCircle
10
87.999998927116394
20
0
30
0
40
11
210
0
220
0
230
1
0
CIRCLE
5
235
100
AcDbEntity
8
0
100
AcDbCircle
10
317.99999892711639
20
0
30
0
40
11
210
0
220
0
230
1
0
CIRCLE
5
236
100
AcDbEntity
8
0
100
AcDbCircle
10
160.99999999999997
20
-23.5
30
0
40
1.25
210
0
220
0
230
1
0
CIRCLE
5
237
100
AcDbEntity
8
0
100
AcDbCircle
10
160.99999999999997
20
23.5
30
0
40
1.249999999999998
210
0
220
0
230
1
0
CIRCLE
5
238
100
AcDbEntity
8
0
100
AcDbCircle
10
376
20
-23.5
30
0
40
1.25
210
0
220
0
230
1
0
CIRCLE
5
239
100
AcDbEntity
8
0
100
AcDbCircle
10
376
20
23.5
30
0
40
1.249999999999998
210
0
220
0
230
1
0
CIRCLE
5
240
100
AcDbEntity
8
0
100
AcDbCircle
10
145.99999999999997
20
-23.5
30
0
40
1.25
210
0
220
0
230
1
0
CIRCLE
5
241
100
AcDbEntity
8
0
100
AcDbCircle
10
145.99999999999997
20
23.5
30
0
40
1.249999999999998
210
0
220
0
230
1
0
CIRCLE
5
242
100
AcDbEntity
8
0
100
AcDbCircle
10
20
20
7.0000000000000018
30
0
40
1.25
210
0
220
0
230
1
0
CIRCLE
5
243
100
AcDbEntity
8
0
100
AcDbCircle
10
58.000000000000007
20
-5
30
0
40
1.25
210
0
220
0
230
1
0
LWPOLYLINE
5
244
100
AcDbEntity
8
0
100
AcDbPolyline
90
4
70
1
43
0.0
10
170
20
-20
10
170
20
20
10
300
20
20
10
300
20
-20
0
LINE
5
245
100
AcDbEntity
8
0
100
AcDbLine
10
300
20
-20
30
0
11
300
21
20
31
0
0
LINE
5
246
100
AcDbEntity
8
0
100
AcDbLine
10
170
20
-20
30
0
11
300
21
-20
31
0
0
LINE
5
247
100
AcDbEntity
8
0
100
AcDbLine
10
193.54807356045177
20
-108.41825754038099
30
0
11
154.97952999264442
21
-108.41825754038103
31
0
0
LINE
5
248
100
AcDbEntity
8
0
100
AcDbLine
10
193.54807356045177
20
-148.41825754038089
30
0
11
193.54807356045177
21
-108.41825754038099
31
0
0
LINE
5
249
100
AcDbEntity
8
0
100
AcDbLine
10
154.97952999264444
20
-148.41825754038092
30
0
11
193.54807356045177
21
-148.41825754038089
31
0
0
ARC
5
250
100
AcDbEntity
8
0
100
AcDbCircle
10
211.54807248756816
20
-128.41825754038095
30
0
40
59.999999999999922
210
0
220
0
230
1
100
AcDbArc
50
-160.52877936550931
51
160.52877936550939
0
CIRCLE
5
251
100
AcDbEntity
8
0
100
AcDbCircle
10
211.54807248756816
20
-128.41825754038095
30
0
40
3.9999999999999876
210
0
220
0
230
1
0
CIRCLE
5
252
100
AcDbEntity
8
0
100
AcDbCircle
10
216.50166131293042
20
-123.46181383322856
30
0
40
1.2499999999999989
210
0
220
0
230
1
0
CIRCLE
5
253
100
AcDbEntity
8
0
100
AcDbCircle
10
206.60216637631876
20
-123.46181383322856
30
0
40
1.25
210
0
220
0
230
1
0
CIRCLE
5
254
100
AcDbEntity
8
0
100
AcDbCircle
10
216.51182038266541
20
-133.35112880627608
30
0
40
1.2500000000000135
210
0
220
0
230
1
0
CIRCLE
5
255
100
AcDbEntity
8
0
100
AcDbCircle
10
206.60216637631876
20
-133.36130876984021
30
0
40
1.2499999999999947
210
0
220
0
230
1
0
CIRCLE
5
256
100
AcDbEntity
8
0
100
AcDbCircle
10
317.99999892711639
20
-27
30
0
40
0.99999999999997635
210
0
220
0
230
1
0
CIRCLE
5
257
100
AcDbEntity
8
0
100
AcDbCircle
10
324.85893470462594
20
-20.141064222490513
30
0
40
0.99999999999997602
210
0
220
0
230
1
0
CIRCLE
5
258
100
AcDbEntity
8
0
100
AcDbCircle
10
311.14106314960691
20
-20.141064222490435
30
0
40
1.0000000000000009
210
0
220
0
230
1
0
LINE
5
259
100
AcDbEntity
8
0
100
AcDbLine
10
0.52828509073669316
20
-155.9061741881967
30
0
11
144.5282872365039
21
-155.9061741881967
31
0
0
LINE
5
260
100
AcDbEntity
8
0
100
AcDbLine
10
144.5282872365039
20
-103.90617341333632
30
0
11
144.5282872365039
21
-155.9061741881967
31
0
0
CIRCLE
5
261
100
AcDbEntity
8
0
100
AcDbCircle
10
141.52828719180042
20
-153.4061741509438
30
0
40
1.2500000000000033
210
0
220
0
230
1
0
CIRCLE
5
262
100
AcDbEntity
8
0
100
AcDbCircle
10
141.52828719180042
20
-106.40617345058922
30
0
40
1.2500000000000027
210
0
220
0
230
1
0
LINE
5
263
100
AcDbEntity
8
0
100
AcDbLine
10
144.5282872365039
20
-103.90617341333632
30
0
11
0.52828509073669316
21
-103.90617341333632
31
0
0
CIRCLE
5
264
100
AcDbEntity
8
0
100
AcDbCircle
10
3.5282851354401767
20
-153.4061741509438
30
0
40
1.2499999999999989
210
0
220
0
230
1
0
CIRCLE
5
265
100
AcDbEntity
8
0
100
AcDbCircle
10
3.5282851354401767
20
-106.40617345058922
30
0
40
1.2499999999999978
210
0
220
0
230
1
0
LINE
5
266
100
AcDbEntity
8
0
100
AcDbLine
10
0.52828509073669316
20
-108.90617587202792
30
0
11
10.528285090736693
21
-108.90617587202792
31
0
0
LINE
5
267
100
AcDbEntity
8
0
100
AcDbLine
10
0.52828509073668428
20
-150.90617649787669
30
0
11
10.528285090736684
21
-150.90617649787669
31
0
0
LINE
5
268
100
AcDbEntity
8
0
100
AcDbLine
10
10.528285090736693
20
-108.90617587202792
30
0
11
10.528285090736684
21
-150.90617649787669
31
0
0
LINE
5
269
100
AcDbEntity
8
0
100
AcDbLine
10
0.52828509073669316
20
-103.90617341333632
30
0
11
0.52828509073669316
21
-108.90617587202792
31
0
0
LINE
5
270
100
AcDbEntity
8
0
100
AcDbLine
10
0.52828509073668428
20
-150.90617649787669
30
0
11
0.52828509073669316
21
-155.9061741881967
31
0
0
LINE
5
271
100
AcDbEntity
8
0
100
AcDbLine
10
13.771231544551107
20
-129.9061761849523
30
0
11
20.164790151135502
21
-108.90617587202792
31
0
0
LINE
5
272
100
AcDbEntity
8
0
100
AcDbLine
10
20.164790151135502
20
-150.90617649787669
30
0
11
13.771231544551107
21
-129.9061761849523
31
0
0
LINE
5
273
100
AcDbEntity
8
0
100
AcDbLine
10
20.164790151135502
20
-150.90617649787669
30
0
11
23.164790151135506
21
-150.90617649787669
31
0
0
LINE
5
274
100
AcDbEntity
8
0
100
AcDbLine
10
20.164790151135502
20
-108.90617587202792
30
0
11
23.164790151135506
21
-108.90617587202792
31
0
0
LINE
5
275
100
AcDbEntity
8
0
100
AcDbLine
10
16.771231544551107
20
-129.9061761849523
30
0
11
23.164790151135506
21
-108.90617587202792
31
0
0
LINE
5
276
100
AcDbEntity
8
0
100
AcDbLine
10
16.771231544551107
20
-129.9061761849523
30
0
11
23.164790151135506
21
-150.90617649787669
31
0
0
LINE
5
277
100
AcDbEntity
8
0
100
AcDbLine
10
23.160120433439992
20
-129.9061761849523
30
0
11
29.553679040024395
21
-108.90617587202792
31
0
0
LINE
5
278
100
AcDbEntity
8
0
100
AcDbLine
10
26.553679040024392
20
-108.90617587202792
30
0
11
29.553679040024395
21
-108.90617587202792
31
0
0
LINE
5
279
100
AcDbEntity
8
0
100
AcDbLine
10
20.160120433439992
20
-129.9061761849523
30
0
11
26.553679040024392
21
-108.90617587202792
31
0
0
LINE
5
280
100
AcDbEntity
8
0
100
AcDbLine
10
26.553679040024392
20
-150.90617649787669
30
0
11
20.160120433439992
21
-129.9061761849523
31
0
0
LINE
5
281
100
AcDbEntity
8
0
100
AcDbLine
10
23.160120433439992
20
-129.9061761849523
30
0
11
29.553679040024395
21
-150.90617649787669
31
0
0
LINE
5
282
100
AcDbEntity
8
0
100
AcDbLine
10
26.553679040024392
20
-150.90617649787669
30
0
11
29.553679040024395
21
-150.90617649787669
31
0
0
LINE
5
283
100
AcDbEntity
8
0
100
AcDbLine
10
29.549009322328885
20
-129.9061761849523
30
0
11
35.942567928913284
21
-108.90617587202792
31
0
0
LINE
5
284
100
AcDbEntity
8
0
100
AcDbLine
10
32.942567928913277
20
-108.90617587202792
30
0
11
35.942567928913284
21
-108.90617587202792
31
0
0
LINE
5
285
100
AcDbEntity
8
0
100
AcDbLine
10
26.549009322328882
20
-129.9061761849523
30
0
11
32.942567928913277
21
-108.90617587202792
31
0
0
LINE
5
286
100
AcDbEntity
8
0
100
AcDbLine
10
32.942567928913277
20
-150.90617649787669
30
0
11
26.549009322328882
21
-129.9061761849523
31
0
0
LINE
5
287
100
AcDbEntity
8
0
100
AcDbLine
10
29.549009322328885
20
-129.9061761849523
30
0
11
35.942567928913284
21
-150.90617649787669
31
0
0
LINE
5
288
100
AcDbEntity
8
0
100
AcDbLine
10
32.942567928913277
20
-150.90617649787669
30
0
11
35.942567928913284
21
-150.90617649787669
31
0
0
LINE
5
289
100
AcDbEntity
8
0
100
AcDbLine
10
35.937898211217771
20
-129.9061761849523
30
0
11
42.331456817802163
21
-108.90617587202792
31
0
0
LINE
5
290
100
AcDbEntity
8
0
100
AcDbLine
10
39.33145681780217
20
-108.90617587202792
30
0
11
42.331456817802163
21
-108.90617587202792
31
0
0
LINE
5
291
100
AcDbEntity
8
0
100
AcDbLine
10
32.937898211217771
20
-129.9061761849523
30
0
11
39.33145681780217
21
-108.90617587202792
31
0
0
LINE
5
292
100
AcDbEntity
8
0
100
AcDbLine
10
39.33145681780217
20
-150.90617649787669
30
0
11
32.937898211217771
21
-129.9061761849523
31
0
0
LINE
5
293
100
AcDbEntity
8
0
100
AcDbLine
10
35.937898211217771
20
-129.9061761849523
30
0
11
42.331456817802163
21
-150.90617649787669
31
0
0
LINE
5
294
100
AcDbEntity
8
0
100
AcDbLine
10
39.33145681780217
20
-150.90617649787669
30
0
11
42.331456817802163
21
-150.90617649787669
31
0
0
LINE
5
295
100
AcDbEntity
8
0
100
AcDbLine
10
42.326787100106664
20
-129.9061761849523
30
0
11
48.720345706691063
21
-108.90617587202792
31
0
0
LINE
5
296
100
AcDbEntity
8
0
100
AcDbLine
10
45.720345706691049
20
-108.90617587202792
30
0
11
48.720345706691063
21
-108.90617587202792
31
0
0
LINE
5
297
100
AcDbEntity
8
0
100
AcDbLine
10
39.326787100106657
20
-129.9061761849523
30
0
11
45.720345706691049
21
-108.90617587202792
31
0
0
LINE
5
298
100
AcDbEntity
8
0
100
AcDbLine
10
45.720345706691049
20
-150.90617649787669
30
0
11
39.326787100106657
21
-129.9061761849523
31
0
0
LINE
5
299
100
AcDbEntity
8
0
100
AcDbLine
10
42.326787100106664
20
-129.9061761849523
30
0
11
48.720345706691063
21
-150.90617649787669
31
0
0
LINE
5
300
100
AcDbEntity
8
0
100
AcDbLine
10
45.720345706691049
20
-150.90617649787669
30
0
11
48.720345706691063
21
-150.90617649787669
31
0
0
LINE
5
301
100
AcDbEntity
8
0
100
AcDbLine
10
48.715675988995542
20
-129.9061761849523
30
0
11
55.109234595579949
21
-108.90617587202792
31
0
0
LINE
5
302
100
AcDbEntity
8
0
100
AcDbLine
10
52.109234595579949
20
-108.90617587202792
30
0
11
55.109234595579949
21
-108.90617587202792
31
0
0
LINE
5
303
100
AcDbEntity
8
0
100
AcDbLine
10
45.71567598899555
20
-129.9061761849523
30
0
11
52.109234595579949
21
-108.90617587202792
31
0
0
LINE
5
304
100
AcDbEntity
8
0
100
AcDbLine
10
52.109234595579949
20
-150.90617649787669
30
0
11
45.71567598899555
21
-129.9061761849523
31
0
0
LINE
5
305
100
AcDbEntity
8
0
100
AcDbLine
10
48.715675988995542
20
-129.9061761849523
30
0
11
55.109234595579949
21
-150.90617649787669
31
0
0
LINE
5
306
100
AcDbEntity
8
0
100
AcDbLine
10
52.109234595579949
20
-150.90617649787669
30
0
11
55.109234595579949
21
-150.90617649787669
31
0
0
LINE
5
307
100
AcDbEntity
8
0
100
AcDbLine
10
55.104564877884442
20
-129.9061761849523
30
0
11
61.498123484468834
21
-108.90617587202792
31
0
0
LINE
5
308
100
AcDbEntity
8
0
100
AcDbLine
10
58.498123484468834
20
-108.90617587202792
30
0
11
61.498123484468834
21
-108.90617587202792
31
0
0
LINE
5
309
100
AcDbEntity
8
0
100
AcDbLine
10
52.104564877884428
20
-129.9061761849523
30
0
11
58.498123484468834
21
-108.90617587202792
31
0
0
LINE
5
310
100
AcDbEntity
8
0
100
AcDbLine
10
58.498123484468834
20
-150.90617649787669
30
0
11
52.104564877884428
21
-129.9061761849523
31
0
0
LINE
5
311
100
AcDbEntity
8
0
100
AcDbLine
10
55.104564877884442
20
-129.9061761849523
30
0
11
61.498123484468834
21
-150.90617649787669
31
0
0
LINE
5
312
100
AcDbEntity
8
0
100
AcDbLine
10
58.498123484468834
20
-150.90617649787669
30
0
11
61.498123484468834
21
-150.90617649787669
31
0
0
LINE
5
313
100
AcDbEntity
8
0
100
AcDbLine
10
61.493453766773321
20
-129.9061761849523
30
0
11
67.88701237335772
21
-108.90617587202792
31
0
0
LINE
5
314
100
AcDbEntity
8
0
100
AcDbLine
10
64.88701237335772
20
-108.90617587202792
30
0
11
67.88701237335772
21
-108.90617587202792
31
0
0
LINE
5
315
100
AcDbEntity
8
0
100
AcDbLine
10
58.493453766773328
20
-129.9061761849523
30
0
11
64.88701237335772
21
-108.90617587202792
31
0
0
LINE
5
316
100
AcDbEntity
8
0
100
AcDbLine
10
64.88701237335772
20
-150.90617649787669
30
0
11
58.493453766773328
21
-129.9061761849523
31
0
0
LINE
5
317
100
AcDbEntity
8
0
100
AcDbLine
10
61.493453766773321
20
-129.9061761849523
30
0
11
67.88701237335772
21
-150.90617649787669
31
0
0
LINE
5
318
100
AcDbEntity
8
0
100
AcDbLine
10
64.88701237335772
20
-150.90617649787669
30
0
11
67.88701237335772
21
-150.90617649787669
31
0
0
LINE
5
319
100
AcDbEntity
8
0
100
AcDbLine
10
67.882342655662214
20
-129.9061761849523
30
0
11
74.275901262246606
21
-108.90617587202792
31
0
0
LINE
5
320
100
AcDbEntity
8
0
100
AcDbLine
10
71.275901262246606
20
-108.90617587202792
30
0
11
74.275901262246606
21
-108.90617587202792
31
0
0
LINE
5
321
100
AcDbEntity
8
0
100
AcDbLine
10
64.882342655662214
20
-129.9061761849523
30
0
11
71.275901262246606
21
-108.90617587202792
31
0
0
LINE
5
322
100
AcDbEntity
8
0
100
AcDbLine
10
71.275901262246606
20
-150.90617649787669
30
0
11
64.882342655662214
21
-129.9061761849523
31
0
0
LINE
5
323
100
AcDbEntity
8
0
100
AcDbLine
10
67.882342655662214
20
-129.9061761849523
30
0
11
74.275901262246606
21
-150.90617649787669
31
0
0
LINE
5
324
100
AcDbEntity
8
0
100
AcDbLine
10
71.275901262246606
20
-150.90617649787669
30
0
11
74.275901262246606
21
-150.90617649787669
31
0
0
LINE
5
325
100
AcDbEntity
8
0
100
AcDbLine
10
74.271231544551114
20
-129.9061761849523
30
0
11
80.664790151135506
21
-108.90617587202792
31
0
0
LINE
5
326
100
AcDbEntity
8
0
100
AcDbLine
10
77.664790151135492
20
-108.90617587202792
30
0
11
80.664790151135506
21
-108.90617587202792
31
0
0
LINE
5
327
100
AcDbEntity
8
0
100
AcDbLine
10
71.271231544551114
20
-129.9061761849523
30
0
11
77.664790151135492
21
-108.90617587202792
31
0
0
LINE
5
328
100
AcDbEntity
8
0
100
AcDbLine
10
77.664790151135492
20
-150.90617649787669
30
0
11
71.271231544551114
21
-129.9061761849523
31
0
0
LINE
5
329
100
AcDbEntity
8
0
100
AcDbLine
10
74.271231544551114
20
-129.9061761849523
30
0
11
80.664790151135506
21
-150.90617649787669
31
0
0
LINE
5
330
100
AcDbEntity
8
0
100
AcDbLine
10
77.664790151135492
20
-150.90617649787669
30
0
11
80.664790151135506
21
-150.90617649787669
31
0
0
LINE
5
331
100
AcDbEntity
8
0
100
AcDbLine
10
80.660120433439999
20
-129.9061761849523
30
0
11
87.053679040024406
21
-108.90617587202792
31
0
0
LINE
5
332
100
AcDbEntity
8
0
100
AcDbLine
10
84.053679040024392
20
-108.90617587202792
30
0
11
87.053679040024406
21
-108.90617587202792
31
0
0
LINE
5
333
100
AcDbEntity
8
0
100
AcDbLine
10
77.660120433439985
20
-129.9061761849523
30
0
11
84.053679040024392
21
-108.90617587202792
31
0
0
LINE
5
334
100
AcDbEntity
8
0
100
AcDbLine
10
84.053679040024392
20
-150.90617649787669
30
0
11
77.660120433439985
21
-129.9061761849523
31
0
0
LINE
5
335
100
AcDbEntity
8
0
100
AcDbLine
10
80.660120433439999
20
-129.9061761849523
30
0
11
87.053679040024406
21
-150.90617649787669
31
0
0
LINE
5
336
100
AcDbEntity
8
0
100
AcDbLine
10
84.053679040024392
20
-150.90617649787669
30
0
11
87.053679040024406
21
-150.90617649787669
31
0
0
LINE
5
337
100
AcDbEntity
8
0
100
AcDbLine
10
87.049009322328871
20
-129.9061761849523
30
0
11
93.442567928913277
21
-108.90617587202792
31
0
0
LINE
5
338
100
AcDbEntity
8
0
100
AcDbLine
10
90.442567928913263
20
-108.90617587202792
30
0
11
93.442567928913277
21
-108.90617587202792
31
0
0
LINE
5
339
100
AcDbEntity
8
0
100
AcDbLine
10
84.049009322328885
20
-129.9061761849523
30
0
11
90.442567928913263
21
-108.90617587202792
31
0
0
LINE
5
340
100
AcDbEntity
8
0
100
AcDbLine
10
90.442567928913263
20
-150.90617649787669
30
0
11
84.049009322328885
21
-129.9061761849523
31
0
0
LINE
5
341
100
AcDbEntity
8
0
100
AcDbLine
10
87.049009322328871
20
-129.9061761849523
30
0
11
93.442567928913277
21
-150.90617649787669
31
0
0
LINE
5
342
100
AcDbEntity
8
0
100
AcDbLine
10
90.442567928913263
20
-150.90617649787669
30
0
11
93.442567928913277
21
-150.90617649787669
31
0
0
LINE
5
343
100
AcDbEntity
8
0
100
AcDbLine
10
93.437898211217757
20
-129.9061761849523
30
0
11
99.831456817802163
21
-108.90617587202792
31
0
0
LINE
5
344
100
AcDbEntity
8
0
100
AcDbLine
10
96.831456817802163
20
-108.90617587202792
30
0
11
99.831456817802163
21
-108.90617587202792
31
0
0
LINE
5
345
100
AcDbEntity
8
0
100
AcDbLine
10
90.437898211217771
20
-129.9061761849523
30
0
11
96.831456817802163
21
-108.90617587202792
31
0
0
LINE
5
346
100
AcDbEntity
8
0
100
AcDbLine
10
96.831456817802163
20
-150.90617649787669
30
0
11
90.437898211217771
21
-129.9061761849523
31
0
0
LINE
5
347
100
AcDbEntity
8
0
100
AcDbLine
10
93.437898211217757
20
-129.9061761849523
30
0
11
99.831456817802163
21
-150.90617649787669
31
0
0
LINE
5
348
100
AcDbEntity
8
0
100
AcDbLine
10
96.831456817802163
20
-150.90617649787669
30
0
11
99.831456817802163
21
-150.90617649787669
31
0
0
LINE
5
349
100
AcDbEntity
8
0
100
AcDbLine
10
99.826787100106657
20
-129.9061761849523
30
0
11
106.22034570669106
21
-108.90617587202792
31
0
0
LINE
5
350
100
AcDbEntity
8
0
100
AcDbLine
10
103.22034570669105
20
-108.90617587202792
30
0
11
106.22034570669106
21
-108.90617587202792
31
0
0
LINE
5
351
100
AcDbEntity
8
0
100
AcDbLine
10
96.826787100106657
20
-129.9061761849523
30
0
11
103.22034570669105
21
-108.90617587202792
31
0
0
LINE
5
352
100
AcDbEntity
8
0
100
AcDbLine
10
103.22034570669105
20
-150.90617649787669
30
0
11
96.826787100106657
21
-129.9061761849523
31
0
0
LINE
5
353
100
AcDbEntity
8
0
100
AcDbLine
10
99.826787100106657
20
-129.9061761849523
30
0
11
106.22034570669106
21
-150.90617649787669
31
0
0
LINE
5
354
100
AcDbEntity
8
0
100
AcDbLine
10
103.22034570669105
20
-150.90617649787669
30
0
11
106.22034570669106
21
-150.90617649787669
31
0
0
LINE
5
355
100
AcDbEntity
8
0
100
AcDbLine
10
106.21567598899553
20
-129.9061761849523
30
0
11
112.60923459557993
21
-108.90617587202792
31
0
0
LINE
5
356
100
AcDbEntity
8
0
100
AcDbLine
10
109.60923459557992
20
-108.90617587202792
30
0
11
112.60923459557993
21
-108.90617587202792
31
0
0
LINE
5
357
100
AcDbEntity
8
0
100
AcDbLine
10
103.21567598899554
20
-129.9061761849523
30
0
11
109.60923459557992
21
-108.90617587202792
31
0
0
LINE
5
358
100
AcDbEntity
8
0
100
AcDbLine
10
109.60923459557992
20
-150.90617649787669
30
0
11
103.21567598899554
21
-129.9061761849523
31
0
0
LINE
5
359
100
AcDbEntity
8
0
100
AcDbLine
10
106.21567598899553
20
-129.9061761849523
30
0
11
112.60923459557993
21
-150.90617649787669
31
0
0
LINE
5
360
100
AcDbEntity
8
0
100
AcDbLine
10
109.60923459557992
20
-150.90617649787669
30
0
11
112.60923459557993
21
-150.90617649787669
31
0
0
LINE
5
361
100
AcDbEntity
8
0
100
AcDbLine
10
112.60456487788443
20
-129.9061761849523
30
0
11
118.99812348446883
21
-108.90617587202792
31
0
0
LINE
5
362
100
AcDbEntity
8
0
100
AcDbLine
10
115.99812348446882
20
-108.90617587202792
30
0
11
118.99812348446883
21
-108.90617587202792
31
0
0
LINE
5
363
100
AcDbEntity
8
0
100
AcDbLine
10
109.60456487788443
20
-129.9061761849523
30
0
11
115.99812348446882
21
-108.90617587202792
31
0
0
LINE
5
364
100
AcDbEntity
8
0
100
AcDbLine
10
115.99812348446882
20
-150.90617649787669
30
0
11
109.60456487788443
21
-129.9061761849523
31
0
0
LINE
5
365
100
AcDbEntity
8
0
100
AcDbLine
10
112.60456487788443
20
-129.9061761849523
30
0
11
118.99812348446883
21
-150.90617649787669
31
0
0
LINE
5
366
100
AcDbEntity
8
0
100
AcDbLine
10
115.99812348446882
20
-150.90617649787669
30
0
11
118.99812348446883
21
-150.90617649787669
31
0
0
LINE
5
367
100
AcDbEntity
8
0
100
AcDbLine
10
118.99345376677331
20
-129.9061761849523
30
0
11
125.38701237335772
21
-108.90617587202792
31
0
0
LINE
5
368
100
AcDbEntity
8
0
100
AcDbLine
10
122.38701237335772
20
-108.90617587202792
30
0
11
125.38701237335772
21
-108.90617587202792
31
0
0
LINE
5
369
100
AcDbEntity
8
0
100
AcDbLine
10
115.99345376677333
20
-129.9061761849523
30
0
11
122.38701237335772
21
-108.90617587202792
31
0
0
LINE
5
370
100
AcDbEntity
8
0
100
AcDbLine
10
122.38701237335772
20
-150.90617649787669
30
0
11
115.99345376677333
21
-129.9061761849523
31
0
0
LINE
5
371
100
AcDbEntity
8
0
100
AcDbLine
10
118.99345376677331
20
-129.9061761849523
30
0
11
125.38701237335772
21
-150.90617649787669
31
0
0
LINE
5
372
100
AcDbEntity
8
0
100
AcDbLine
10
122.38701237335772
20
-150.90617649787669
30
0
11
125.38701237335772
21
-150.90617649787669
31
0
0
LINE
5
373
100
AcDbEntity
8
0
100
AcDbLine
10
125.3823426556622
20
-129.9061761849523
30
0
11
131.77590126224661
21
-108.90617587202792
31
0
0
LINE
5
374
100
AcDbEntity
8
0
100
AcDbLine
10
128.77590126224661
20
-108.90617587202792
30
0
11
131.77590126224661
21
-108.90617587202792
31
0
0
LINE
5
375
100
AcDbEntity
8
0
100
AcDbLine
10
122.38234265566221
20
-129.9061761849523
30
0
11
128.77590126224661
21
-108.90617587202792
31
0
0
LINE
5
376
100
AcDbEntity
8
0
100
AcDbLine
10
128.77590126224661
20
-150.90617649787669
30
0
11
122.38234265566221
21
-129.9061761849523
31
0
0
LINE
5
377
100
AcDbEntity
8
0
100
AcDbLine
10
125.3823426556622
20
-129.9061761849523
30
0
11
131.77590126224661
21
-150.90617649787669
31
0
0
LINE
5
378
100
AcDbEntity
8
0
100
AcDbLine
10
128.77590126224661
20
-150.90617649787669
30
0
11
131.77590126224661
21
-150.90617649787669
31
0
0
LINE
5
379
100
AcDbEntity
8
0
100
AcDbLine
10
131.77123154455109
20
-129.9061761849523
30
0
11
138.16479015113549
21
-108.90617587202792
31
0
0
LINE
5
380
100
AcDbEntity
8
0
100
AcDbLine
10
135.16479015113549
20
-108.90617587202792
30
0
11
138.16479015113549
21
-108.90617587202792
31
0
0
LINE
5
381
100
AcDbEntity
8
0
100
AcDbLine
10
128.77123154455111
20
-129.9061761849523
30
0
11
135.16479015113549
21
-108.90617587202792
31
0
0
LINE
5
382
100
AcDbEntity
8
0
100
AcDbLine
10
135.16479015113549
20
-150.90617649787669
30
0
11
128.77123154455111
21
-129.9061761849523
31
0
0
LINE
5
383
100
AcDbEntity
8
0
100
AcDbLine
10
131.77123154455109
20
-129.9061761849523
30
0
11
138.16479015113549
21
-150.90617649787669
31
0
0
LINE
5
384
100
AcDbEntity
8
0
100
AcDbLine
10
135.16479015113549
20
-150.90617649787669
30
0
11
138.16479015113549
21
-150.90617649787669
31
0
0
LWPOLYLINE
5
385
100
AcDbEntity
8
0
100
AcDbPolyline
90
4
70
1
43
0.0
10
50
20
-50
10
-25
20
-50
10
-25
20
-45
10
50
20
-45
0
LWPOLYLINE
5
386
100
AcDbEntity
8
0
100
AcDbPolyline
90
4
70
1
43
0.0
10
-45
20
-40
10
50
20
-40
10
50
20
-35
10
-45
20
-35
0
LWPOLYLINE
5
387
100
AcDbEntity
8
0
100
AcDbPolyline
90
4
70
1
43
0.0
10
-50
20
-30
10
50
20
-30
10
50
20
-25
10
-50
20
-25
0
LWPOLYLINE
5
388
100
AcDbEntity
8
0
100
AcDbPolyline
90
4
70
1
43
0.0
10
-55
20
-20
10
50
20
-20
10
50
20
-15
10
-55
20
-15
0
LWPOLYLINE
5
389
100
AcDbEntity
8
0
100
AcDbPolyline
90
4
70
1
43
0.0
10
-60
20
-10
10
50
20
-10
10
50
20
-5
10
-60
20
-5
0
LWPOLYLINE
5
390
100
AcDbEntity
8
0
100
AcDbPolyline
90
4
70
1
43
0.0
10
-60
20
20
10
50
20
20
10
50
20
25
10
-60
20
25
0
LWPOLYLINE
5
391
100
AcDbEntity
8
0
100
AcDbPolyline
90
4
70
1
43
0.0
10
-50
20
30
10
50
20
30
10
50
20
35
10
-50
20
35
0
LWPOLYLINE
5
392
100
AcDbEntity
8
0
100
AcDbPolyline
90
4
70
1
43
0.0
10
-45
20
40
10
50
20
40
10
50
20
45
10
-45
20
45
0
LWPOLYLINE
5
393
100
AcDbEntity
8
0
100
AcDbPolyline
90
4
70
1
43
0.0
10
-25
20
50
10
50
20
50
10
50
20
55
10
-25
20
55
0
LWPOLYLINE
5
394
100
AcDbEntity
8
0
100
AcDbPolyline
90
4
70
1
43
0.0
10
10
20
15
10
-60
20
15
10
-60
20
10
10
10
20
10
0
LWPOLYLINE
5
395
100
AcDbEntity
8
0
100
AcDbPolyline
90
4
70
1
43
0.0
10
-60
20
5
10
10
20
5
10
10
20
0
10
-60
20
0
0
LWPOLYLINE
5
396
100
AcDbEntity
8
0
100
AcDbPolyline
90
4
70
1
43
0.0
10
50.00000074505806
20
15.000000223517418
10
30.000000447034836
20
15.000000223517418
10
30.000000447034836
20
10.000000149011612
10
50.00000074505806
20
10.000000149011612
0
LWPOLYLINE
5
397
100
AcDbEntity
8
0
100
AcDbPolyline
90
4
70
1
43
0.0
10
50.00000074505806
20
5.000000074505806
10
30.000000447034836
20
5.000000074505806
10
30.000000447034836
20
0
10
50.00000074505806
20
0
0
LWPOLYLINE
5
398
100
AcDbEntity
8
0
100
AcDbPolyline
90
4
70
1
43
0.0
10
300
20
-60
10
239.93212455912541
20
-60
10
239.93212455912541
20
-55
10
300
20
-55
0
LWPOLYLINE
5
399
100
AcDbEntity
8
0
100
AcDbPolyline
90
4
70
1
43
0.0
10
205.03004811555297
20
-50
10
300
20
-50
10
300
20
-45
10
205.03004811555297
20
-45
0
LWPOLYLINE
5
400
100
AcDbEntity
8
0
100
AcDbPolyline
90
4
70
1
43
0.0
10
184.87685822669135
20
-40
10
300
20
-40
10
300
20
-35
10
184.87685822669135
20
-35
0
LWPOLYLINE
5
401
100
AcDbEntity
8
0
100
AcDbPolyline
90
4
70
1
43
0.0
10
300
20
-25
10
240
20
-25
10
240
20
-30
10
300
20
-30
0
LWPOLYLINE
5
402
100
AcDbEntity
8
0
100
AcDbPolyline
90
4
70
1
43
0.0
10
175
20
-25
10
210
20
-25
10
210
20
-30
10
175
20
-30
0
LWPOLYLINE
5
403
100
AcDbEntity
8
0
100
AcDbPolyline
90
4
70
1
43
0.0
10
215
20
30
10
175
20
30
10
175
20
25
10
215
20
25
0
LWPOLYLINE
5
404
100
AcDbEntity
8
0
100
AcDbPolyline
90
4
70
1
43
0.0
10
300
20
30
10
235
20
30
10
235
20
25
10
300
20
25
0
LWPOLYLINE
5
405
100
AcDbEntity
8
0
100
AcDbPolyline
90
4
70
1
43
0.0
10
300
20
40
10
185
20
40
10
185
20
35.590197854313516
10
300
20
35.590197854313516
0
LWPOLYLINE
5
406
100
AcDbEntity
8
0
100
AcDbPolyline
90
4
70
1
43
0.0
10
300
20
50
10
195
20
50
10
195
20
45
10
300
20
45
0
LWPOLYLINE
5
407
100
AcDbEntity
8
0
100
AcDbPolyline
90
4
70
1
43
0.0
10
300
20
60
10
230
20
60
10
230
20
55
10
300
20
55
0
ENDSEC
0
SECTION
2
OBJECTS
0
DICTIONARY
5
C
100
AcDbDictionary
3
ACAD_GROUP
350
D
3
ACAD_MLINESTYLE
350
17
0
DICTIONARY
5
D
100
AcDbDictionary
0
DICTIONARY
5
1A
330
C
100
AcDbDictionary
0
DICTIONARY
5
17
100
AcDbDictionary
0
ENDSEC
0
EOF
